# xmcd
#
# Track frame offsets:
#	150
#	2368
#	18374
#	33036
#	47485
#	64926
#	84854
#	104340
#	122029
#	141470
#	164426
#	166207
#	183971
#	202394
#	219367
#
# Disc length: 3253 seconds
#
# Revision: 0
# Processed by: cddbd v1.5.2PL0 Copyright (c) Steve Scherf et al.
# Submitted via: EasyCDDAExtractor 12.0.3.1
#
DISCID=c20cb30f
DTITLE=George Belliveau - Prise 2
DYEAR=2008
DGENRE=Country
TTITLE0=Gb 101
TTITLE1=Plus répondre à personne
TTITLE2=P'tit coin de ciel
TTITLE3=Hey! Hey!
TTITLE4=C'est l'amour
TTITLE5=La Grange à GB
TTITLE6=Briser les murs
TTITLE7=Caféine
TTITLE8=Une histoire d'amour
TTITLE9=Oui, je sais
TTITLE10=Intro-Cucaracha
TTITLE11=La Cucaracha
TTITLE12=Watch-moi ben aller!
TTITLE13=Tymeuse d'la baie
TTITLE14=Encore et encore
EXTD=
EXTT0=
EXTT1=
EXTT2=
EXTT3=
EXTT4=
EXTT5=
EXTT6=
EXTT7=
EXTT8=
EXTT9=
EXTT10=
EXTT11=
EXTT12=
EXTT13=
EXTT14=
PLAYORDER=
